<svg width="36" height="36" viewBox="0 0 36 36" fill="none" xmlns="http://www.w3.org/2000/svg">
    <g filter="url(#filter0_i)">
        <rect width="36" height="36" rx="6" fill="white"/>
    </g>
    <rect x="0.5" y="0.5" width="35" height="35" rx="5.5" stroke="#AAB0D8"/>
    <path fill-rule="evenodd" clip-rule="evenodd" d="M27.4965 10.6461C28.0823 10.0604 29.032 10.0604 29.6178 10.6461C30.2036 11.2319 30.2036 12.1817 29.6178 12.7675L16.8899 25.4954C16.3041 26.0812 15.3544 26.0812 14.7686 25.4954L9.81884 20.5456C9.23305 19.9599 9.23305 19.0101 9.81884 18.4243C10.4046 17.8385 11.3544 17.8385 11.9402 18.4243L15.8292 22.3134L27.4965 10.6461Z" fill="#2C2A50"/>
    <mask id="mask0" mask-type="alpha" maskUnits="userSpaceOnUse" x="8" y="4" width="23" height="23">
        <path fill-rule="evenodd" clip-rule="evenodd" d="M27.4965 10.6461C28.0823 10.0604 29.032 10.0604 29.6178 10.6461C30.2036 11.2319 30.2036 12.1817 29.6178 12.7675L16.8899 25.4954C16.3041 26.0812 15.3544 26.0812 14.7686 25.4954L9.81884 20.5456C9.23305 19.9599 9.23305 19.0101 9.81884 18.4243C10.4046 17.8385 11.3544 17.8385 11.9402 18.4243L15.8292 22.3134L27.4965 10.6461Z" fill="white"/>
    </mask>
    <g mask="url(#mask0)">
    </g>
    <defs>
        <filter id="filter0_i" x="0" y="0" width="36" height="37" filterUnits="userSpaceOnUse" color-interpolation-filters="sRGB">
            <feFlood flood-opacity="0" result="BackgroundImageFix"/>
            <feBlend mode="normal" in="SourceGraphic" in2="BackgroundImageFix" result="shape"/>
            <feColorMatrix in="SourceAlpha" type="matrix" values="0 0 0 0 0 0 0 0 0 0 0 0 0 0 0 0 0 0 127 0" result="hardAlpha"/>
            <feOffset dy="1"/>
            <feGaussianBlur stdDeviation="2.5"/>
            <feComposite in2="hardAlpha" operator="arithmetic" k2="-1" k3="1"/>
            <feColorMatrix type="matrix" values="0 0 0 0 0 0 0 0 0 0 0 0 0 0 0 0 0 0 0.15 0"/>
            <feBlend mode="normal" in2="shape" result="effect1_innerShadow"/>
        </filter>
    </defs>
</svg>
